<svg width="141" height="140" viewBox="0 0 141 140" fill="none" xmlns="http://www.w3.org/2000/svg">
    <g clip-path="url(#clip0_264_7108)">
        <circle opacity="0.1" cx="70.5" cy="70" r="70" fill="#1273F2"/>
        <path opacity="0.5" d="M55.6831 61.0106H54.7684H50.2737V96.9683H61.5105C61.5105 98.1604 61.984 99.3036 62.827 100.147C63.6699 100.989 64.8131 101.463 66.0052 101.463H99.0886C101.167 101.463 103.18 100.743 104.787 99.4253C106.394 98.1078 107.495 96.2743 107.903 94.2367L113.296 67.2683C113.557 65.9642 113.525 64.6185 113.203 63.3281C112.881 62.0377 112.277 60.8349 111.434 59.8064C110.591 58.7778 109.53 57.9492 108.328 57.3802C107.126 56.8111 105.812 56.5159 104.482 56.5158H83.9841V31.7949C83.9841 29.4107 83.037 27.1242 81.3511 25.4384C79.6653 23.7525 77.3788 22.8054 74.9946 22.8054H72.7473C72.1512 22.8054 71.5796 23.0422 71.1582 23.4637C70.7367 23.8851 70.4999 24.4567 70.4999 25.0528V39.4067C70.7325 54.2685 60.5295 60.5105 55.6831 61.0106Z" fill="#1273F2"/>
        <path fill-rule="evenodd" clip-rule="evenodd" d="M32.2948 61.0106H52.521V96.9684C52.521 98.1605 52.0475 99.3037 51.2045 100.147C50.3616 100.99 49.2184 101.463 48.0263 101.463H32.2948C31.1027 101.463 29.9594 100.99 29.1165 100.147C28.2736 99.3037 27.8 98.1605 27.8 96.9684V65.5053C27.8 64.3133 28.2736 63.17 29.1165 62.3271C29.9594 61.4842 31.1027 61.0106 32.2948 61.0106Z" fill="#1273F2"/>
        <path fill-rule="evenodd" clip-rule="evenodd" d="M70.4999 25.0528V34.0422H73.8709C74.467 34.0422 75.0386 33.8054 75.46 33.384C75.8815 32.9625 76.1183 32.3909 76.1183 31.7949V23.9291C76.1183 23.5358 76.0172 23.165 75.8396 22.8447C75.5587 22.8185 75.2767 22.8054 74.9946 22.8054H72.7472C72.1512 22.8054 71.5796 23.0422 71.1581 23.4637C70.7367 23.8851 70.4999 24.4567 70.4999 25.0528ZM39.0368 93.5974C39.0368 95.4592 37.5275 96.9684 35.6657 96.9684C33.8039 96.9684 32.2947 95.4592 32.2947 93.5974C32.2947 91.7356 33.8039 90.2263 35.6657 90.2263C37.5275 90.2263 39.0368 91.7356 39.0368 93.5974Z" fill="white"/>
    </g>
    <defs>
        <clipPath id="clip0_264_7108">
            <rect width="140" height="140" fill="white" transform="translate(0.5)"/>
        </clipPath>
    </defs>
</svg>
